Coordinates
version=1
nRows=27
nColumns=19
inDegrees=yes

Units are S.I. units (second, meters, Newtons, ...)
If the header above contains a line with 'inDegrees', this indicates whether rotational values are in degrees (yes) or radians (no).

endheader
time	pelvis_tilt	pelvis_list	pelvis_rotation	pelvis_tx	pelvis_ty	pelvis_tz	hip_flexion_r	hip_adduction_r	hip_rotation_r	knee_angle_r	knee_angle_r_beta	ankle_angle_r	hip_flexion_l	hip_adduction_l	hip_rotation_l	knee_angle_l	knee_angle_l_beta	ankle_angle_l
     13.06666667	     -2.94463323	      8.56501275	      9.32113840	      2.36841030	      1.04822755	      1.09002407	    -15.03886502	    -10.74302441	    -12.87825493	     76.60095369	      1.33693885	    -27.51900293	     20.33357519	     13.87743079	     -0.28179483	     12.22314896	      0.21333419	      5.14652524
     13.07333333	     -2.91151393	      8.64404089	      9.77175452	      2.36634913	      1.04275479	      1.09044217	    -13.51818581	    -10.76423401	    -12.25356932	     80.27050939	      1.40098468	    -29.40827298	     21.10141143	     14.02521513	      0.09223846	     15.37284278	      0.26830672	      5.24400229
     13.08000000	     -2.86329656	      8.75343891	     10.16460898	      2.36417170	      1.03690615	      1.09085765	    -11.94208679	    -10.93132883	    -11.69014762	     83.88470429	      1.46406428	    -31.12946423	     21.93049824	     14.17922193	      0.17344123	     18.87296208	      0.32939533	      5.49534825
     13.08666667	     -2.81931896	      8.88106055	     10.47291479	      2.36187786	      1.03074104	      1.09140115	    -10.26758271	    -11.20095009	    -11.09404714	     87.43368922	      1.52600575	    -32.59377304	     22.79384888	     14.29822449	     -0.01254389	     22.58738808	      0.39422429	      5.95907538
     13.09333333	     -2.66743407	      9.06665601	     10.69969255	      2.35948137	      1.02448323	      1.09210532	     -8.63566952	    -11.57952869	    -10.47082086	     90.89439392	      1.58640645	    -33.69558960	     23.47814400	     14.40770327	     -0.34364137	     26.31956317	      0.45936303	      6.66773275
     13.10000000	     -2.52689093	      9.26615504	     10.85458061	      2.35696934	      1.01826379	      1.09296048	     -6.88219587	    -12.00018691	     -9.74639957	     94.23574864	      1.64472409	    -34.49224011	     24.06908489	     14.48791934	     -0.73242003	     29.95898279	      0.52288289	      7.62574610
     13.10666667	     -2.32921020	      9.45096479	     10.90893888	      2.35424771	      1.01222514	      1.09398402	     -5.05626105	    -12.45050759	     -8.92402798	     97.47261443	      1.70121805	    -34.87670180	     24.44959051	     14.50132273	     -1.11422074	     33.37701707	      0.58253884	      8.92730776
     13.11333333	     -2.10768477	      9.65089859	     10.89258332	      2.35150472	      1.00657406	      1.09522877	     -3.14807622	    -12.87828979	     -7.97679447	    100.51996032	      1.75440427	    -34.84883342	     24.60599027	     14.49324419	     -1.44610280	     36.50347547	      0.63710584	     10.47136158
     13.12000000	     -1.99146632	      9.78642310	     10.93585086	      2.34857581	      1.00123485	      1.09638170	     -1.02373996	    -13.27342070	     -7.04324248	    103.38906389	      1.80447958	    -34.56850377	     24.67751352	     14.47724873	     -1.57824321	     39.31784705	      0.68622589	     12.22997906
     13.12666667	     -1.82128819	      9.89819242	     10.91726010	      2.34561827	      0.99650349	      1.09754742	      1.14144080	    -13.62371436	     -6.02730391	    106.02617031	      1.85050577	    -33.87243843	     24.44859667	     14.43864519	     -1.56261594	     41.72207394	      0.72818756	     14.15318384
     13.13333333	     -1.56725345	      9.99434238	     10.85777562	      2.34265310	      0.99254827	      1.09866697	      3.29191262	    -13.95617995	     -4.99777946	    108.38993113	      1.89176117	    -32.92813571	     23.87630897	     14.36092179	     -1.47993802	     43.69569602	      0.76263376	     16.12133327
     13.14000000	     -1.28784627	     10.02024418	     10.81268047	      2.33986185	      0.98941977	      1.09963829	      5.45104995	    -14.19866961	     -4.01496154	    110.42376876	      1.92725834	    -31.70291156	     22.99583751	     14.24820523	     -1.18098546	     45.20611744	      0.78899559	     18.11224615
     13.14666667	     -1.07722992	      9.93388436	     10.73679655	      2.33728092	      0.98701335	      1.10043535	      7.74247670	    -14.32312378	     -3.04237747	    112.13366658	      1.95710168	    -30.39432217	     21.93877141	     14.03176838	     -0.80012955	     46.27636707	      0.80767497	     20.01805253
     13.15333333	     -1.11352229	      9.66831462	     10.64671526	      2.33492916	      0.98518639	      1.10102324	     10.37017362	    -14.28757565	     -2.10386665	    113.51328420	      1.98118055	    -29.06592902	     20.93680446	     13.65876233	     -0.37866234	     46.95329012	      0.81948951	     21.81729608
     13.16000000	     -0.75606539	      9.45552677	     10.64399302	      2.33303779	      0.98480666	      1.10122559	     12.39073282	    -14.29207334	     -1.48947442	    114.39384114	      1.99654917	    -27.68580224	     19.15961993	     13.35705124	      0.35896988	     47.08499141	      0.82178813	     23.38893149
     13.16666667	     -0.53985145	      9.09562351	     10.51242355	      2.33164948	      0.98517181	      1.10133332	     14.55730052	    -14.12867002	     -0.89389025	    114.91256705	      2.00560265	    -26.12091089	     17.33440958	     12.84181542	      0.94749285	     46.81358999	      0.81705128	     24.67891282
     13.17333333	     -0.34621871	      8.56186760	     10.03875151	      2.33069995	      0.98622714	      1.10170797	     16.79415474	    -13.62058157	     -0.14510273	    115.07711189	      2.00847450	    -24.39088659	     15.43508094	     11.96238567	      1.04127614	     46.26513227	      0.80747889	     25.68510414
     13.18000000	     -0.17785561	      7.96751648	      9.64957574	      2.33026503	      0.98825836	      1.10167505	     18.87588595	    -13.09196552	      0.29062541	    114.80181630	      2.00366968	    -22.82820911	     13.31436090	     11.11328497	      1.36178724	     45.27554371	      0.79020731	     26.31521169
     13.18666667	     -0.31343668	      7.34740739	      9.45867753	      2.33027095	      0.99081677	      1.10123557	     21.08441549	    -12.67341022	      0.38292390	    114.15229895	      1.99233347	    -21.41920639	     11.32777457	     10.37275292	      1.93816811	     43.94674240	      0.76701535	     26.46229634
     13.19333333	      0.63067514	      6.66094297	      8.72460012	      2.33090708	      0.99530097	      1.10128873	     21.94883894	    -11.81646657	      0.53290346	    112.99178277	      1.97207864	    -19.71608433	      8.01413362	      9.22375053	      1.90963444	     42.19590027	      0.73645739	     26.30669507
     13.20000000	      0.25274012	      5.88480349	      8.43651875	      2.33162484	      0.99897787	      1.10072899	     24.12361619	    -11.19365101	      0.35399765	    111.65693237	      1.94878110	    -18.24880349	      6.11678130	      8.34624105	      2.32278816	     40.40650667	      0.70522658	     25.51640818
     13.20666667	      1.27243738	      5.02330745	      7.70390095	      2.33314268	      1.00486023	      1.10067926	     24.47655739	    -10.17261512	      0.04464983	    109.75434913	      1.91557476	    -16.68103299	      2.50681047	      7.05430942	      2.17226869	     38.12743180	      0.66544922	     24.30194637
     13.21333333	      1.46500909	      4.12025409	      7.15606724	      2.33475989	      1.01031179	      1.10043140	     25.60674040	     -9.25045523	     -0.40213284	    107.66078348	      1.87903515	    -15.26015337	     -0.19242955	      5.92528132	      2.15884863	     35.81129829	      0.62502506	     22.52127532
     13.22000000	      1.52331547	      3.12076072	      6.54507873	      2.33662664	      1.01604684	      1.10035622	     26.71479787	     -8.18069605	     -0.92726262	    105.27922785	      1.83746916	    -13.90553618	     -2.71935880	      4.69796532	      1.87564681	     33.43885689	      0.58361815	     20.09539870
     13.22666667	      1.70019950	      2.21182863	      6.00954902	      2.33877471	      1.02229116	      1.10027208	     27.45057769	     -7.25709512	     -1.61653669	    102.59797731	      1.79067251	    -12.60713512	     -5.44101956	      3.60176810	      1.67718042	     30.85989370	      0.53860675	     17.11002744
     13.23333333	      1.72747169	      1.32173881	      5.53976057	      2.34116020	      1.02867322	      1.10023187	     28.14518844	     -6.40009836	     -2.43508721	     99.65865156	      1.73937160	    -11.41995935	     -7.96219690	      2.54573150	      1.39860866	     28.25366442	      0.49311947	     13.64960957
     13.24000000	      1.43321876	      0.39645470	      4.90433517	      2.34375691	      1.03489359	      1.10058329	     29.07970549	     -5.38621701	     -3.11742217	     96.51402558	      1.68448752	    -10.39797355	    -10.06373139	      1.50206012	      0.75618943	     25.69142558	      0.44839997	      9.80558659
